<svg xmlns="http://www.w3.org/2000/svg" viewBox="0 0 32 32.01"><defs><style>.cls-1,.cls-2{fill:none;}.cls-2{stroke:#fff;stroke-linecap:round;stroke-linejoin:round;stroke-width:2.46px;}.cls-3{fill:#fff;}</style></defs><title>Education</title><g id="Warstwa_2" data-name="Warstwa 2"><g id="Warstwa_3" data-name="Warstwa 3"><rect class="cls-1" width="32" height="32"/><path class="cls-2" d="M29.54,9.46c-.54,1.64,0,2.36,0,2.36L19.18,24.62,4.24,20s-1.78-.18-1.78-3.2A2.57,2.57,0,0,1,5.66,14"/><path class="cls-2" d="M29.54,11.82a7.8,7.8,0,0,0,0,6.33L19.18,30.78,4.24,26s-1.78-.61-1.78-3.38a3.72,3.72,0,0,1,1.28-2.71"/><path class="cls-3" d="M30.71,4.34a1.11,1.11,0,0,0-.82-.72L14.48.13A1.13,1.13,0,0,0,13.4.49l-11,12.25a5.71,5.71,0,0,0-1.16,3.55c.61-.76,1.35-1.84,1.72-1.74l15.14,4.57a1.09,1.09,0,0,0,.29,0,1.12,1.12,0,0,0,.86-.41L30.52,5.42A1.11,1.11,0,0,0,30.71,4.34ZM22.47,7l-.85,1a1.34,1.34,0,0,1-1.22.31l-7.9-1.93c-.44-.1-.6-.42-.37-.69l.85-1a1.33,1.33,0,0,1,1.22-.31l7.9,1.92C22.54,6.38,22.71,6.7,22.47,7Z"/></g></g></svg>