<svg xmlns="http://www.w3.org/2000/svg" viewBox="0 0 32 27.08"><defs><style>.cls-1{fill:#fff;}</style></defs><title>Experience</title><g id="Warstwa_2" data-name="Warstwa 2"><g id="Warstwa_3" data-name="Warstwa 3"><path class="cls-1" d="M28.31,0H3.69A3.69,3.69,0,0,0,0,3.69V23.38a3.69,3.69,0,0,0,3.69,3.69H28.31A3.69,3.69,0,0,0,32,23.38V3.69A3.69,3.69,0,0,0,28.31,0Zm1.23,23.38a1.23,1.23,0,0,1-1.23,1.23H3.69a1.23,1.23,0,0,1-1.23-1.23V6.15H29.54Z"/><path class="cls-1" d="M16,17.46a1.23,1.23,0,0,1-1.23-1.23h0A1.23,1.23,0,0,1,16,15h6.15a1.23,1.23,0,0,1,1.23,1.23h0a1.23,1.23,0,0,1-1.23,1.23Z"/><polygon class="cls-1" points="8.55 8.85 5.42 8.85 9.72 13.15 5.42 17.46 8.55 17.46 12.86 13.15 8.55 8.85"/></g></g></svg>