<svg xmlns="http://www.w3.org/2000/svg" viewBox="0 0 32.13 32.13"><defs><style>.cls-1{fill:none;}.cls-2{fill:#fff;}</style></defs><title>Facebook</title><g id="Warstwa_2" data-name="Warstwa 2"><g id="Warstwa_3" data-name="Warstwa 3"><rect class="cls-1" width="32.13" height="32.13"/><path class="cls-2" d="M26.11,0H6A6,6,0,0,0,0,6V26.11a6,6,0,0,0,6,6H26.11a6,6,0,0,0,6-6V6A6,6,0,0,0,26.11,0Zm-.82,17.3h-3V28.43h-5V17.3H15.31V13.55h1.95V11.17c0-3.13,1.3-5,5-5H26V9.91H23.82c-1.44,0-1.53.53-1.53,1.54v2.1H25.7Z"/></g></g></svg>