<svg xmlns="http://www.w3.org/2000/svg" viewBox="0 0 32.13 32.13"><defs><style>.cls-1,.cls-3{fill:none;}.cls-2{fill:#fff;}.cls-3{stroke:#fff;stroke-linecap:round;stroke-linejoin:round;stroke-width:0.31px;}</style></defs><title>Git Hub</title><g id="Warstwa_2" data-name="Warstwa 2"><g id="Warstwa_3" data-name="Warstwa 3"><rect class="cls-1" width="32.13" height="32.13"/><rect class="cls-1" width="32.13" height="32.13"/><path class="cls-2" d="M16.07.23A15.83,15.83,0,1,0,31.9,16.07,15.83,15.83,0,0,0,16.07.23Zm0,29.2A13.36,13.36,0,1,1,29.43,16.07,13.38,13.38,0,0,1,16.07,29.43Z"/><path class="cls-3" d="M24.92,17.9a18.27,18.27,0,0,1,2.54-.26,9.78,9.78,0,0,1,2,.3"/><path class="cls-3" d="M24.51,18.41s1.82-.16,2.58-.14a9.92,9.92,0,0,1,2.16.35"/><path class="cls-3" d="M8.2,17.81s-2.26-.21-3-.21a12.91,12.91,0,0,0-2.68.4"/><path class="cls-3" d="M8.72,18.51a23.86,23.86,0,0,0-3.45-.09,7,7,0,0,0-2.41.82"/><path class="cls-2" d="M7.79,16.07c0-3.8,4-7.28,8.88-7.28s8.88,3.48,8.88,7.28-2.85,6.48-8.88,6.48S7.79,19.87,7.79,16.07Z"/><path class="cls-2" d="M20,9.52a5.17,5.17,0,0,1,4-1.93c1,1,.32,4,0,4.85Z"/><path class="cls-2" d="M13.41,9.52a5.17,5.17,0,0,0-4-1.93c-1,1-.32,4,0,4.85Z"/><path class="cls-2" d="M12.82,25.95H10.49A2.58,2.58,0,0,1,8.14,24.7,6.84,6.84,0,0,0,6,21.94c-.21-.15-.09-.36.32-.32a2.39,2.39,0,0,1,1.78.91c.59.77,1.23,1.66,2.34,1.66s2.29,0,2.9-.76Z"/><path class="cls-2" d="M17.66,21.86h-2c-1.85,0-3.34,2.63-3.34,4.48v3.38a1.46,1.46,0,0,0,1.24,1.64v-4a.62.62,0,0,1,1.24,0v4.16h1.24V26.57a.62.62,0,0,1,1.24,0v4.92h1.24V27.32a.62.62,0,1,1,1.24,0v4A1.46,1.46,0,0,0,21,29.72V26.34C21,24.49,19.51,21.86,17.66,21.86Z"/></g></g></svg>