<svg xmlns="http://www.w3.org/2000/svg" viewBox="0 0 32.13 32.13"><defs><style>.cls-1{fill:none;}.cls-2{fill:#fff;fill-rule:evenodd;}</style></defs><title>Google</title><g id="Warstwa_2" data-name="Warstwa 2"><g id="Warstwa_3" data-name="Warstwa 3"><rect class="cls-1" width="32.13" height="32.13"/><path class="cls-2" d="M32.1,6a6.3,6.3,0,0,0-6.27-6H6.3A6.3,6.3,0,0,0,0,6Z"/><path class="cls-2" d="M10.75,21.52a9.87,9.87,0,0,0-2.58.39A2.73,2.73,0,0,0,6.07,24.4c0,1.72,1.69,3,4.32,3,2.36,0,3.61-1.12,3.61-2.62,0-1.23-.81-1.89-2.67-3.19A4.28,4.28,0,0,0,10.75,21.52Z"/><path class="cls-2" d="M9.55,10.72a2.3,2.3,0,0,0-1.72.8,2.75,2.75,0,0,0-.54,1.78c0,1.62,1,4.31,3.07,4.31A2.54,2.54,0,0,0,12,16.94a2.44,2.44,0,0,0,.61-1.76C12.64,13.43,11.58,10.72,9.55,10.72Z"/><path class="cls-2" d="M0,7.41V25.84a6.32,6.32,0,0,0,6.3,6.29H25.83a6.32,6.32,0,0,0,6.3-6.29V7.41ZM14.8,14a4.15,4.15,0,0,1-2.06,3.47A1.72,1.72,0,0,0,12,18.69a1.32,1.32,0,0,0,.64,1l.88.68c1.08.9,2.06,1.72,2.06,3.39,0,2.27-2.23,4.57-6.45,4.57-3.56,0-5.27-1.67-5.27-3.46A3.48,3.48,0,0,1,5.8,22a10.72,10.72,0,0,1,4.68-1.12,2.5,2.5,0,0,1-.74-1.64,2.13,2.13,0,0,1,.25-.94c-.27,0-.54,0-.79,0a3.86,3.86,0,0,1-4.08-3.8,4.31,4.31,0,0,1,1.58-3.24,6.74,6.74,0,0,1,4.39-1.34h5.06l-1.57.8H13.06A4.31,4.31,0,0,1,14.8,14Zm13.62,7h-3.7v3.67h-2.5V21H18.54V18.53h3.68v-3.7h2.5v3.7h3.7Z"/></g></g></svg>