<svg xmlns="http://www.w3.org/2000/svg" viewBox="0 0 34.2 34.2"><defs><style>.cls-1{fill:#fff;}.cls-2{fill:none;stroke:#fff;stroke-linecap:round;stroke-linejoin:round;stroke-width:2.16px;}</style></defs><title>Hobbies</title><g id="Warstwa_2" data-name="Warstwa 2"><g id="Warstwa_3" data-name="Warstwa 3"><path class="cls-1" d="M21.59,3.85l0,0L21.8,4a.22.22,0,0,0,.12,0L22,4.1c0,.05,0,.05.42.18h.06a.13.13,0,0,0,.09-.07.11.11,0,0,0,0-.1h.14A.15.15,0,0,0,22.83,4a.17.17,0,0,0-.05-.17l-.16-.09c0-.06,0-.1-.1-.26l0,0s-.05,0-.23-.1h-.09l-.18,0,0,0-.06,0h-.1a.16.16,0,0,0-.09,0h-.19a.15.15,0,0,0-.13.08.12.12,0,0,0,0,.06C21.37,3.71,21.39,3.72,21.59,3.85Z"/><path class="cls-1" d="M32.76,15.73,32.57,15h0a.13.13,0,0,0,.06-.13,15.75,15.75,0,0,0-4.77-9.21,16.23,16.23,0,0,0-2.48-1.88h0l-.08,0h0L25,3.54h0l-.07,0-.11-.07h0l-.05,0h0l-.08,0h0l0,0-.07,0h0l-.09,0h-.06l-.05,0h0a.12.12,0,0,0-.14.08.13.13,0,0,0,0,.15l.12.07,0,0,.37.2.16.06h.06l.05,0h0l.22.13,0,0,0,0,.06,0,.37.3h0l0,.05a.13.13,0,0,0,0,.15l.05,0-.06,0-.27-.2h0a1.32,1.32,0,0,0-.2-.26v0a.12.12,0,0,0,0-.05.21.21,0,0,0-.07-.11,1.35,1.35,0,0,0-.31-.15.16.16,0,0,0-.15,0,.13.13,0,0,0-.11,0,.13.13,0,0,0,0,.17,1.57,1.57,0,0,0,.27.28l.12.11a.22.22,0,0,0,.09.06.38.38,0,0,0,.1.18l0,.06s0,0,.58.33h.12l.05,0,0,0a.13.13,0,0,0,0,.1v.05L25.66,5a.13.13,0,0,0-.16,0,.14.14,0,0,0,0,.09l-.16-.07L25.11,5h0l-.29-.05h-.11l-.16-.05-.19-.1-.05,0-.26,0h-.22l-.08,0a.12.12,0,0,0-.05.06l0,.08-.13,0a.18.18,0,0,0-.09.06l0,.05,0,.08a.13.13,0,0,0,0,.07l-.06.09a.2.2,0,0,0,0,.08.13.13,0,0,0,0,0l0,.08,0,.51a.19.19,0,0,0,0,0l0,0-.29.35a.13.13,0,0,0,0,.16l.4.59.06.13,0,0a.68.68,0,0,0,.34.12h0l0,.22a.13.13,0,0,0,0,.1l.12.14,0,0-.21.07,0,0,0,0-.09.12a.13.13,0,0,0-.08,0l-.08.07,0,0,0,0,0,.09,0-.12s0,0,0-.05,0-.06-.75-.74V7.39l0,0,0,0c0-.05,0-.06-.27-.17l0-.08a.19.19,0,0,0-.17-.1H21.8c-.13,0-.13,0-.24.56v0a.14.14,0,0,0,0,.06l0,.07h-.14a.17.17,0,0,0-.09,0h0l-.07,0,0,0h0c-.08,0-.1,0-.21.14a.21.21,0,0,0,0,.13l0,.15a.19.19,0,0,0,.08.1v0l0,0,0,.24a.18.18,0,0,0,0,.13.21.21,0,0,0,.18.06l.35-.07h0l.3-.14,0,0v.06h0l0,0,0,0,0,0-.07.17a.17.17,0,0,0,0,.14.21.21,0,0,0,.16.08h.13l-.05.16a.16.16,0,0,0,0,0s0,0,0,0l0,.16a.48.48,0,0,0,.07.09.13.13,0,0,0,.09,0h.21l.25.22,0,.1a.58.58,0,0,0,0,.07l0,.15-.62-.09h0l-.23,0h-.05l-.06,0a.13.13,0,0,0-.09.08l0,.05-.09,0a.13.13,0,0,0-.08.05l0,0a.13.13,0,0,0,0,.11c0,.17.06.39.08.56l-.1.49s0,0,0,0v.07a.13.13,0,0,0,0,.08l.08.07.12.34a.21.21,0,0,0,.22.11l.23,0,.11.12-.8.69,0,.06v0l-.13.55-.57.41-.26.11a.14.14,0,0,0-.07.07,8,8,0,0,1-.44.79l-.2.34-.31.68a.13.13,0,0,0,0,.06c0,.08,0,.12,0,.16a.12.12,0,0,0,0,.05l0,0,.08.13.09.65-.4.79a.13.13,0,0,0,0,.15l.17.17c0,.08,0,.16,0,.24a.14.14,0,0,0,0,0v.06a.12.12,0,0,0,0,.07l.12.19.19.23.41.59,0,0,.25.19.19.24,0,0,.07.06,0,0,0,0,0,0,.58.34.19.17.07,0h0a.67.67,0,0,0,.27-.07l.43-.07h.72l.59-.06h.16l.25-.14h.26l.17,0,.14.39a.13.13,0,0,0,.14.09l.46,0,.19.26,0,.07-.36.76a.13.13,0,0,0,0,.11l.31.77.06.17v.19a.24.24,0,0,0,0,.07l0,.06a.36.36,0,0,1,0,.07l0,.1-.07.24-.17.91-.28.25-.15.36-.08,0-.06,0a.13.13,0,0,0,0,.05l-.2.48a.3.3,0,0,0,0,.06.12.12,0,0,0,0,0l.08.34c-.14.54-.33,1.15-.48,1.57v0l0,.1-.12.31-.17.33-.13.12a1.62,1.62,0,0,0-.19.32l0,.09a.13.13,0,0,0,0,.11.13.13,0,0,0,.08.08.52.52,0,0,0,.2,0h0l.16-.08,0,0,.74-.15.44-.2h0l.69-.48h0l.31-.22.35-.37.15-.14.1-.07H27a.61.61,0,0,0,.18-.13l.42-.42,0,0,.25-.47,0-.07H28a.57.57,0,0,0,.17-.14l.09-.07h0l.53-.39h0l.07,0h0l-.09.11,0,0-.18.31-.35.3s0,0-.46.66a.42.42,0,0,0,0,.2.13.13,0,0,0,.07.13h0a.14.14,0,0,0,.09,0h0l.27-.12a3.54,3.54,0,0,0,.46-.46l.06,0h.08a.18.18,0,0,0,.12-.08l.15-.2.05-.07a.16.16,0,0,0,0-.17l0,0,.29-.34a.16.16,0,0,0,0,.07.18.18,0,0,0,.05.11l0,0a.13.13,0,0,0,.12,0s0,0,.23-.24a.4.4,0,0,0,.07-.18.14.14,0,0,0,0,0,.13.13,0,0,0-.2-.11l-.06.05.09-.13h0a.2.2,0,0,0,.11-.09l.45-.78a.7.7,0,0,0,0-.21.13.13,0,0,0-.05-.13.15.15,0,0,0-.18,0s0,0-.15.16a.14.14,0,0,0-.06-.16l0,0h-.19l0-.08.07-.14,0-.09a.15.15,0,0,0,0-.06V24l.2-.55,0-.17.17-.29.07-.07,0,0a3,3,0,0,0,.11-.3l.17-.27.1-.15a.14.14,0,0,0,.06,0l.48-.73.12-.05a.13.13,0,0,0,.07-.06l.31-.65v0c.14-.29.29-.68.3-.73l.06-.28c.07-.31.15-.65.19-.91a.13.13,0,0,0,0-.07l0-.14a.13.13,0,0,0-.08-.1.13.13,0,0,0-.13,0l-.2.14-.2.14,0,0h0V18.5h0l0,0,.41-.33,0,0,.28-.5a.12.12,0,0,0,0,0c0-.06,0-.1,0-.13a.14.14,0,0,0,.05-.07l.14-.37v0l0-.17c0-.32.07-.69.08-1A.12.12,0,0,0,32.76,15.73Zm-1.46,1.54v.33a.13.13,0,0,0-.07-.06h0L31.16,17V17l0-.15ZM26,12.35a1.31,1.31,0,0,0,.06.15l0,.1a.2.2,0,0,0,.14.1l0-.13,0,.13h0c.08,0,.1,0,.23-.24l0,0a.21.21,0,0,0,0-.07.17.17,0,0,0,0-.08.17.17,0,0,0,.1-.16v-.22a.13.13,0,0,0,.08-.07l.13-.26a.13.13,0,0,0,0-.12l0-.07h0a.13.13,0,0,0,.08,0l0,.07,0,0,0,0,.07,0,.16.22a.13.13,0,0,0,.08.05h.05l.1.18,0,.09a.16.16,0,0,0,.06.06l0,0,.07,0h.12a.29.29,0,0,0,0,.05s0,0,.09.18,0,.08.59.18h0c.16,0,.15-.13.13-.36l0,0a.13.13,0,0,0,.12,0l.26-.07,0,0h0a.18.18,0,0,0,0,.07.21.21,0,0,0,.07.18l.21.13h0a.2.2,0,0,0,.1,0l.05,0,.07-.09,0,.16,0,.53-.34-.11a.13.13,0,0,0-.15.05l-.09.14-.5-.19h-.26l0-.06A.13.13,0,0,0,28.2,13a2.4,2.4,0,0,0-.42,0h0l0,0-.13.08a.13.13,0,0,0-.06.09l0,.23L26.89,13l0,0-.62-.15-.2-.07a.14.14,0,0,0,0-.08A3.58,3.58,0,0,0,26,12.35ZM24.86,7.81l.05,0A.13.13,0,0,0,25,7.66l0-.29L25,7.25l.07-.31a.18.18,0,0,0,0,0l.23.1h.08a.73.73,0,0,0,.09.19l0,0,0,0a.14.14,0,0,0,0,.09l.1.27a.72.72,0,0,0-.34,0l-.09,0h0l-.33.13,0,0H24.8Zm3.32,2.52a.17.17,0,0,0,0-.07h0a.24.24,0,0,0,0-.08V10l0,0c.27.25.27.25.34.25l.07,0,.06,0,.07-.1,0,0,.43.3.18.14-.19,0c-.18-.13-.19-.13-.25-.13H29l-.29.11-.25.09h-.08l-.16-.18v0a.22.22,0,0,0,0-.08Zm0,1.4a.13.13,0,0,0,0-.05l0,0,0,.06.07.07.14.29h-.29l.06-.05a.13.13,0,0,0,0-.1A.65.65,0,0,0,28.14,11.73Zm-5.24.48.29,0h.07l0,0,.25-.22.06-.06.11-.12a.13.13,0,0,0,0-.14l-.11-.32,0-.07.12-.05h.09l0,0,.15-.07a.13.13,0,0,0,.07-.1l0-.24,0,0,.37.05.08,0,.19-.12h0l0,0s0,0,0,0a.23.23,0,0,0,0,.13l0,.14v0l0,.06a.24.24,0,0,0,0,.1l0,.08.06.26a.19.19,0,0,0,.15.14h.1l.19-.07a.16.16,0,0,0,.11-.16A1.43,1.43,0,0,0,25.4,11a.19.19,0,0,0-.11-.12l0-.12v0l.24.23,0,0,.49.27,0,0,0,.11-.32-.05a.32.32,0,0,0-.12,0,.13.13,0,0,0-.08.14l0,.13a.14.14,0,0,0,0,.06,1.5,1.5,0,0,0,.37.29l0,0h0a.17.17,0,0,0-.15.17l0-.17a.13.13,0,0,0,0-.08l-.11-.09-.22-.12-.1,0h-.06l-.2.07L24,11.94h0l-.79.29h-.29Zm6.57,13-.27.17h0l.29-.46.1,0h.06l.05,0Z"/><path class="cls-1" d="M25.17,21.69a.34.34,0,0,0,0-.3.36.36,0,0,0-.3-.14h0a.44.44,0,0,0-.38.32.32.32,0,0,0,.13.35.37.37,0,0,0,.21.06A.43.43,0,0,0,25.17,21.69Z"/><path class="cls-1" d="M19.32,5.19a.13.13,0,0,0,.12-.08l0-.1.08-.18a.13.13,0,0,0,0-.07.13.13,0,0,0,0-.08.13.13,0,0,0,.06-.09l.07-.44a.14.14,0,0,0,0-.07.13.13,0,0,0,0-.11l-.13-.26a.15.15,0,0,0,.06-.05l.06,0a.13.13,0,0,0,.13,0l.11-.09a.13.13,0,0,0,0-.09h0a.15.15,0,0,0,0-.09.52.52,0,0,0-.33-.16l-.12,0h0l-.14,0a.14.14,0,0,0,0-.07.36.36,0,0,1-.07-.09A.54.54,0,0,0,19,2.88a.76.76,0,0,0-.39-.13,3.18,3.18,0,0,0-.68,0h-.5a.37.37,0,0,0-.12,0,.3.3,0,0,0-.16,0,1.38,1.38,0,0,0-.44.27l-.09.07h0A.13.13,0,0,0,16.54,3c-.12,0-.15,0-.18-.06l0-.05a.28.28,0,0,0-.22-.22h0l-.12,0h0a.24.24,0,0,0-.21-.26h-.09a.47.47,0,0,0-.23.06.19.19,0,0,0-.09.13l-.06,0-.09,0a.7.7,0,0,0-.12.11s-.08.09-.14.08a.13.13,0,0,0-.11,0,.24.24,0,0,0-.16.17.43.43,0,0,0-.13.2l-.09.06V3.17a.17.17,0,0,0-.16-.11.2.2,0,0,0-.15.1l-.22.14,0,0-.22.24a.17.17,0,0,0,0,.16h0s-.07-.05-.2-.08h0l0,0,.09-.17a.16.16,0,0,0,0-.13.18.18,0,0,0-.14-.08c-.06,0-.06,0-.27.16l0,0L13,3.61l0,0a.16.16,0,0,0,0-.09c0-.07,0-.1-.13-.17a.13.13,0,0,0-.09,0l-.14.06h0a.21.21,0,0,0-.2,0l-.07.07h0a.15.15,0,0,0-.14-.08l-.43,0h0l-.31.12c-.07,0-.09.06-.16.18h-.36L10.32,4l0,0-.3.19a.19.19,0,0,0-.08.11.14.14,0,0,0,0,.14l0,0,0-.09a.13.13,0,0,0-.08-.08l0,0a.13.13,0,0,0-.14,0l-.05,0,0,0H9.45l-.32.05v0a1.29,1.29,0,0,1,.05-.18.14.14,0,0,0-.06-.17.13.13,0,0,0-.08,0l-.36,0h0l-.43.17a16.14,16.14,0,0,0-2,1.63l0,.05-.3.37a.13.13,0,0,0,0,.11l-.1.1h0c-.07,0-.07,0-.38.32a.23.23,0,0,0-.06.08l-.13.1-.06.07L5,7.07l0,0,0,0-.16.2a.13.13,0,0,0,0,.14l0,.05-.07,0s0,0-.28.31l0,0,0,0-.09.19-.05.11a.13.13,0,0,0-.09.05L4,8.42A15.51,15.51,0,0,0,1.67,14l0,.53,0,.68L1.56,16a.14.14,0,0,0,0,.05l.07.26c.07.26.16.56.24.79l0,.06.32.34a.13.13,0,0,0,.16,0l.17-.09.13.33v0l0,0,.08.13,0,0,.15.16.06,0,.22.13v0l.32,1,0,0,.07.09a.13.13,0,0,0,.15,0l0,0,.13.15H4a.13.13,0,0,0,.06.08l.07,0h0l.17.24a.13.13,0,0,0,.16,0l.18-.08a.12.12,0,0,0,.06-.06l.07.11c.05.36.12.73.19,1.09l0,.24-.07.24-.11.53a.12.12,0,0,0,0,0v0l.11.37v0a.13.13,0,0,0,0,.05l.05,0H5v0a.13.13,0,0,0,0,.09l0,.06.27.58,0,0,.52.45.26.39,0,0,0,0h0a14.34,14.34,0,0,0,1.07,1.28l.72.39H8l.37.22.07.07c.28.43.7,1.07,1,1.54a18.51,18.51,0,0,0,1.93,2.18l0,0,.26.19.11.11.06.06,0,0a.62.62,0,0,0,.17.06c0,.05,0,.07.24.22a.2.2,0,0,0,.12,0h0l.08.11.06,0,.18.08,0,.05,0,0a1,1,0,0,0,.25.11l.05,0h0a.21.21,0,0,0,.07.11l0,0,.08,0,.14.07.09,0h0l.05,0,0,0,.07,0a.14.14,0,0,0,.07.07l.28.13a.13.13,0,0,0,.11,0h0a.14.14,0,0,0,.06.06l.26.11h.12l.17,0a.13.13,0,0,0,.12-.07h0a.13.13,0,0,0,.09-.21h.09l.05,0a.15.15,0,0,0,.06-.09.16.16,0,0,0,0-.12l-.11-.13s0,0-.17-.1h-.12l-.07,0a.15.15,0,0,0-.06.17l0,.09-.2-.07H14.4l-.06-.05,0,0-.16-.09L14,31l0,0-.1-.1-.06,0-.17-.06a.13.13,0,0,0,0-.09l-.36-.44,0,0,0,0a.13.13,0,0,0,0-.14l0,0,.17-.12a.17.17,0,0,0,.06-.1.11.11,0,0,0,0,0l0-.28a.13.13,0,0,0,0-.07l-.09-.07h0a.22.22,0,0,0,.08-.07l0,0,.06-.21,0,0a.11.11,0,0,0,0-.05l.06-.26,0,0a.22.22,0,0,0,0-.06.13.13,0,0,0,0,0V28.4h0a.13.13,0,0,0,0-.14l-.26-.67.95-.51a.13.13,0,0,0,.07-.1l0-.21c0-.3.1-.66.15-.93a.23.23,0,0,0,0-.06L14.35,25l.07-.09.13,0,0,0,0,0,0,0,.23-.43h0l.26-.46a.33.33,0,0,0,0-.08.14.14,0,0,0,0,0L15,23a.13.13,0,0,0-.07-.09l-1.28-.63h0l-1-.14L12.25,22l-.4-.29,0,0-.09,0v0a.18.18,0,0,0,0-.14l0-.06s-.07-.07-.11-.05h0l-.3-.25-.37-.53a.13.13,0,0,0,0-.06l0,0-.05,0-.64-.29-.2-.16a.13.13,0,0,0-.1,0l-.39.05L9,19.63h.09a.13.13,0,0,0,.08-.11,1.53,1.53,0,0,0,0-.24l.14-.13a.13.13,0,0,0,0-.1V19a.13.13,0,0,0-.12-.13l-.45,0v0s0,0-.05-.19a.18.18,0,0,0,.08-.15s0,0-.08-.25A.92.92,0,0,0,8.65,18l0-.05c0-.07,0-.13,0-.35v0a.18.18,0,0,0,0-.1.19.19,0,0,0,.11-.17,1,1,0,0,0-.07-.26.18.18,0,0,0-.11-.1h0a.18.18,0,0,0-.18-.21h0a.19.19,0,0,0-.14-.14l-.39-.08-.17,0H7.57a.19.19,0,0,0-.11.07l-.15-.12-.11-.08a.18.18,0,0,0-.13,0,.17.17,0,0,0-.14.09h0l-.39-.22-.18-.06-.09,0H6l0,0H6v0h.15A.18.18,0,0,0,6.32,16c0-.06,0-.06-.1-.34a.17.17,0,0,0-.2-.1.19.19,0,0,0-.12.09l-.09.17v0l-.45-.3-.61-.42-.1,0h0l-.38.08h0c-.07,0-.07,0-.25.44l-.07,0H3.81l-.6.09a.13.13,0,0,0-.11.09l-.14.5-.2,0-.16-.46.17-.88.15-.45.13-.21c.15-.23.31-.49.46-.7h.2l.29.28a.13.13,0,0,0,.16,0,.5.5,0,0,0,.2-.32l.37.13,0,1.06a.13.13,0,0,0,.07.12.48.48,0,0,0,.25.06.13.13,0,0,0,.09,0l.05,0v0l.06.17s0,.1.16.12h.19A.18.18,0,0,0,5.72,15s0,0,0-.38a.17.17,0,0,0-.17-.13H5.38l.1-.34c0-.22.07-.44.11-.66l.32-.55H6l.39-.26L7,12.22l0,0a.27.27,0,0,0,.05-.1c0-.15.07-.3.11-.44l0,0a.13.13,0,0,0,.18,0L8,11.09l0,0,.08-.12.6-.06a.14.14,0,0,0,.08,0L9,10.64a.13.13,0,0,0,0-.14v0l.12-.16h.16l.05,0,.43-.21,0,.11a.13.13,0,0,0,0,.11l0,0a.13.13,0,0,0,.15,0l.72-.27.26-.1L11,10l0,0,0,0h.16c.06,0,.07,0,.25-.14l0-.06a.16.16,0,0,0,0-.19l0-.18a.21.21,0,0,0,0-.13.2.2,0,0,0-.15-.06c-.08,0-.08,0-.47.42l-.1-.11,0-.16h0a.13.13,0,0,0,.09,0L11,9.06a.19.19,0,0,0,0-.13v0a.14.14,0,0,0,0-.08h.59a.17.17,0,0,0-.08.12.16.16,0,0,0,0,.11l-.07.11a.2.2,0,0,0,0,.15c0,.08.07.09.45.15l0,.08a.18.18,0,0,0,.15.08h.13a.17.17,0,0,0,.09,0,.25.25,0,0,0,.11,0h.14c.06,0,.06,0,.32-.19a.19.19,0,0,0,.06-.1s0-.06,0-.11a.15.15,0,0,0-.08-.15L13,9a.19.19,0,0,0,0-.12s0-.07-.14-.12L13,8.59a.17.17,0,0,0,0-.19A.15.15,0,0,0,13,8.32l.13-.19h0a.14.14,0,0,0,0-.11.13.13,0,0,0-.1-.09l-.28-.07,0,0c0-.1.06-.18.08-.26v0a.13.13,0,0,0-.06-.14l0,0v0l0-.1c.06-.39.1-.59.11-.61a.13.13,0,0,0-.06-.14l0,0c.05,0,.07,0,.18-.24h.17c.08,0,.08,0,.41-.35l.08,0c.07,0,.09,0,.62-.3l0,0a.2.2,0,0,0,.06-.1c0-.07,0-.07-.28-.43l.14-.16c0-.09,0-.09-.23-.5l0,0,0,0h0a1.42,1.42,0,0,0,.18-.18h.07A1.19,1.19,0,0,0,14.55,4l.09-.06h.09l.21-.05A.2.2,0,0,0,15,3.76v0a.14.14,0,0,0,0,.06h0l0,.09A.22.22,0,0,0,15,4V4l0,.09a.21.21,0,0,0,.08.08l.06,0h.33l.12,0,0,.08-.1.28a.27.27,0,0,0,0,.09.14.14,0,0,0,0,.08.13.13,0,0,0,0,.11l0,.09,0,0,0,0h-.19c-.07,0-.07,0-.36.25a.27.27,0,0,0,0,.07v0l0,.26a.13.13,0,0,0,0,.07.22.22,0,0,0,0,.07v0l-.06,0,0,0a.18.18,0,0,0-.08.09A.14.14,0,0,0,15,6l.15.59a.13.13,0,0,0,0,.07l.07,0h.19l.09.15,0,0a.2.2,0,0,0,.17,0L16,6.9l0,0,.2-.19.57-.6.41-.14,0,0,.06,0,.07,0h0c.07,0,.09,0,.31-.18l.41-.22.22,0h.1l.85-.32Zm-7.53.69,0,0-.18-.1h0l0-.25a.13.13,0,0,0,0,0l.43-.08L12,5.5l0,0-.17.2A.16.16,0,0,0,11.79,5.88ZM10.42,6l0,0,0,0a.13.13,0,0,0,0-.07h.22v0a.13.13,0,0,0,.09.15.6.6,0,0,0,.19,0h.06l.09,0h0a2.78,2.78,0,0,0-.25.3l-.15.19-.27.1a.14.14,0,0,0-.07.05l-.31.5-.63.22a.13.13,0,0,0-.08.06l0,.06h0l-.18-.27-.1-.34a.13.13,0,0,0-.08-.08h0a.13.13,0,0,0,0-.09V6.63l.43-.31L10,6.13Zm1.8-.59.4-.37.18.06-.18.16,0,0-.09.12Zm.09,1.15a.13.13,0,0,0,0-.18L12,6l0,0-.12-.06c.08,0,.11,0,.4,0l0,0,0,0c-.09.14-.05.16.39.46h0l-.44.24,0,0ZM4,15.82l0,0,0,.06C4,16,4,16,4,16.12a.17.17,0,0,0,.1.12.14.14,0,0,0,.11,0l0,0a.42.42,0,0,0,.15.39.31.31,0,0,0,.18.06.39.39,0,0,0,.36-.37.48.48,0,0,0,0-.2l.07.06s0,.05,0,.08v.11a.18.18,0,0,0,.11.15h.09l.41-.06a.18.18,0,0,0,0,0v0a.21.21,0,0,0,0,.14.16.16,0,0,0-.07,0l-.32-.07-.14,0H4.95c-.06,0-.07,0-.2.18a.19.19,0,0,0,0,.15.16.16,0,0,0,.06.11,1.56,1.56,0,0,0,.23.15l.09,0,0,0h.11l.22-.09,0,0a.19.19,0,0,0,.08-.15s0-.05,0-.09a2,2,0,0,0,.58.13h.75a.18.18,0,0,0,.15.08h.41a.19.19,0,0,0,.12,0l0,0,.08.07a.18.18,0,0,0,.12,0h.06l.08,0v0a.18.18,0,0,0,.11.15.21.21,0,0,0,0,.1c0,.09,0,.17,0,.26v.09a.18.18,0,0,0,.12.15v.09h0a.21.21,0,0,0,0,.1c0,.07,0,.14,0,.22a.18.18,0,0,0,.07.13s0,.08,0,.13h0a.24.24,0,0,0,0,.12c0,.06,0,.11,0,.17v0a.19.19,0,0,0,.16.16h0v.09l-.26-.23,0,0-.49-.1H7.47l-.09,0-.51-.13-.31-.37,0,0,0,0a.13.13,0,0,0-.15,0l-.09.09-.07,0-.11-.06a.13.13,0,0,0-.13,0l-.6.33-.05,0,0,0-.19.44L4.89,19l-.06,0H4.76L4.39,19l-.13-.23,0-1.12s0-.06,0-.09a.13.13,0,0,0,0-.07A2.79,2.79,0,0,0,4,17.22l0,0-.06,0,0,0L3.6,17h0v-.27Z"/><path class="cls-1" d="M19.68,6.45h0s0,0,.75-.31A.16.16,0,0,0,20.51,6l0-.13,0-.05,0,0-.28-.22a.26.26,0,0,0-.14,0l-.52.09-.12-.07-.08,0-.36.07a.16.16,0,0,0-.11.11.18.18,0,0,0,0,.16A1,1,0,0,0,19,6l0,.1a.18.18,0,0,0,0,.12c0,.07,0,.07.69.27Z"/><circle class="cls-2" cx="17.1" cy="17.1" r="16.02"/></g></g></svg>