<svg xmlns="http://www.w3.org/2000/svg" viewBox="0 0 26 26"><defs><style>.cls-1,.cls-3{fill:none;}.cls-2{fill:#fff;}.cls-3{stroke:#fff;stroke-linecap:round;stroke-linejoin:round;stroke-width:2px;}</style></defs><title>light</title><g id="Warstwa_2" data-name="Warstwa 2"><g id="Warstwa_3" data-name="Warstwa 3"><rect class="cls-1" width="26" height="26"/><path class="cls-2" d="M11.1,24.06a1.9,1.9,0,1,0,3.81,0C14.9,23,11.1,23,11.1,24.06Z"/><path class="cls-2" d="M16,24.25a.75.75,0,0,1-.75.75h-4.5a.75.75,0,0,1-.75-.75v-1.5a.75.75,0,0,1,.75-.75h4.5a.75.75,0,0,1,.75.75Z"/><path class="cls-2" d="M13,7.12a5.81,5.81,0,0,0-5.81,5.81c0,3.3,2.84,5.22,2.84,6.91v.41a.74.74,0,0,0,.74.74h4.46a.74.74,0,0,0,.74-.74v-.41c0-1.69,2.84-3.56,2.84-6.91A5.81,5.81,0,0,0,13,7.12ZM9.86,15a3.72,3.72,0,0,1-.69-2.16A3.83,3.83,0,0,1,15,9.62h-.22a4.91,4.91,0,0,0-4.94,4.88C9.84,14.65,9.85,14.82,9.86,15Z"/><line class="cls-3" x1="13" y1="4" x2="13" y2="1"/><line class="cls-3" x1="22" y1="13" x2="25" y2="13"/><line class="cls-3" x1="1" y1="13" x2="4" y2="13"/><line class="cls-3" x1="19.36" y1="19.37" x2="21.49" y2="21.49"/><line class="cls-3" x1="4.51" y1="4.52" x2="6.64" y2="6.64"/><line class="cls-3" x1="6.63" y1="19.36" x2="4.51" y2="21.49"/><line class="cls-3" x1="21.48" y1="4.51" x2="19.36" y2="6.64"/></g></g></svg>