<svg xmlns="http://www.w3.org/2000/svg" viewBox="0 0 32.13 32.13"><defs><style>.cls-1{fill:none;}.cls-2{fill:#333;}.cls-3{fill:#fff;}</style></defs><title>linkedin</title><g id="Warstwa_2" data-name="Warstwa 2"><g id="Warstwa_3" data-name="Warstwa 3"><rect class="cls-1" width="32.13" height="32.13"/><path class="cls-2" d="M17.35,14.48v0l0,0Z"/><path class="cls-3" d="M26.11,0H6A6,6,0,0,0,0,6V26.11a6,6,0,0,0,6,6H26.11a6,6,0,0,0,6-6V6A6,6,0,0,0,26.11,0ZM9.93,27.27h-5l0-14.94h5ZM7.31,10.37h0a2.53,2.53,0,1,1,.06-5,2.53,2.53,0,1,1,0,5Zm19.93,16.9h-5V19.15c0-2-.52-3.3-2.28-3.3a2.56,2.56,0,0,0-2.42,1.78,3.33,3.33,0,0,0-.16,1.18v8.46H12.29l0-14.95h5.06l0,2.11A4.68,4.68,0,0,1,21.65,12c3.19,0,5.59,2.09,5.59,6.57Z"/></g></g></svg>