<svg xmlns="http://www.w3.org/2000/svg" viewBox="0 0 32 32"><defs><style>.cls-1{fill:#fff;}.cls-2,.cls-3{fill:none;}.cls-3{stroke:#fff;stroke-linecap:round;stroke-linejoin:round;stroke-width:2.46px;}</style></defs><title>Objectives</title><g id="Warstwa_2" data-name="Warstwa 2"><g id="Warstwa_3" data-name="Warstwa 3"><path class="cls-1" d="M4.23,4.16a1.23,1.23,0,0,1-.84,1.53L1.7,6.18A1.24,1.24,0,0,1,.17,5.34h0A1.23,1.23,0,0,1,1,3.81l1.7-.49a1.23,1.23,0,0,1,1.53.84Z"/><rect class="cls-2" width="32" height="32"/><line class="cls-3" x1="11.47" y1="30.44" x2="2.2" y2="4.75"/><path class="cls-3" d="M6.26,5.1A14,14,0,0,1,16,1.23c3.78,0,5.5,2.46,8.62,2.46s6.11-2.46,6.11-2.46v16a11.46,11.46,0,0,1-4.92,1.23c-2.67,0-3.76-1.23-7.38-1.23-3.44,0-6.66,3.33-6.66,3.33Z"/><path class="cls-1" d="M6.26,5.1a11.77,11.77,0,0,1,4.36-2.77l1.91,4.91A14.58,14.58,0,0,0,8,10L6.32,5.29"/><path class="cls-1" d="M12.53,7.24l2.06,5.29A10.42,10.42,0,0,1,17.33,12a17.47,17.47,0,0,1,2.22.16L18.06,6.5a7.57,7.57,0,0,0-.94-.06A14.11,14.11,0,0,0,12.53,7.24Z"/><path class="cls-1" d="M10.05,15.6l1.75,5a14,14,0,0,1,4.72-3l-1.92-5.06A17,17,0,0,0,10.05,15.6Z"/><path class="cls-1" d="M16.67,1.3l1.38,5.2C19.17,6.5,22.28,8,22.28,8L21.06,2.65A13.57,13.57,0,0,0,16.67,1.3Z"/><path class="cls-1" d="M19.55,12.13,21,17.47c.72,0,2.77.88,3.67.88l-1.2-5.26C22.28,12.79,20.41,12.24,19.55,12.13Z"/><path class="cls-1" d="M22.28,8l1.16,5.07a13.51,13.51,0,0,0,2,.21,11.94,11.94,0,0,0,1.79-.18L26.8,8.48a6.39,6.39,0,0,1-1.7.24A7.1,7.1,0,0,1,22.28,8Z"/><path class="cls-1" d="M26.4,3.45l.41,5a12.28,12.28,0,0,0,4-2V1.23A11.75,11.75,0,0,1,26.4,3.45Z"/><path class="cls-1" d="M27.18,13.12a12.59,12.59,0,0,0,3.59-1.37v5.47a11.52,11.52,0,0,1-3.18,1.07Z"/></g></g></svg>