<svg xmlns="http://www.w3.org/2000/svg" viewBox="0 0 32.03 32.04"><defs><style>.cls-1{fill:#fff;}</style></defs><title>Projects</title><g id="Warstwa_2" data-name="Warstwa 2"><g id="Warstwa_3" data-name="Warstwa 3"><path class="cls-1" d="M21.05,22.8V20.17l-3.13-.51a7.59,7.59,0,0,0-.86-2.08L18.89,15,17,13.12,14.46,15a7.52,7.52,0,0,0-2.09-.87L11.82,11H9.19l-.51,3.11a7.57,7.57,0,0,0-2.1.86L4,13.12,2.16,15,4,17.56a7.65,7.65,0,0,0-.87,2.1L0,20.17V22.8l3.09.55A7.58,7.58,0,0,0,4,25.45L2.14,28,4,29.87l2.58-1.81a7.58,7.58,0,0,0,2.1.86L9.19,32h2.63l.55-3.12A7.57,7.57,0,0,0,14.46,28l2.6,1.82L18.92,28l-1.85-2.57a7.55,7.55,0,0,0,.86-2.08ZM10.53,25.18a3.67,3.67,0,1,1,3.67-3.67A3.67,3.67,0,0,1,10.53,25.18Z"/><path class="cls-1" d="M31.26,11.86,32,10,30,8.71A5.78,5.78,0,0,0,30,7L32,5.7l-.76-1.86-2.36.55A5.79,5.79,0,0,0,27.7,3.15L28.23.79,26.37,0l-1.27,2a5.78,5.78,0,0,0-1.73,0L22.1,0,20.24.76l.51,2.35a5.88,5.88,0,0,0-1.24,1.23l-2.33-.55L16.4,5.64l2,1.3a5.79,5.79,0,0,0,0,1.74l-2,1.26.76,1.87,2.35-.51a5.85,5.85,0,0,0,1.22,1.23l-.55,2.35,1.86.77,1.31-2a5.74,5.74,0,0,0,1.73,0l1.29,2.05,1.86-.77-.55-2.36a5.85,5.85,0,0,0,1.22-1.21Zm-8.13-1.43a2.81,2.81,0,1,1,3.67-1.5A2.81,2.81,0,0,1,23.13,10.42Z"/></g></g></svg>