<svg xmlns="http://www.w3.org/2000/svg" viewBox="0 0 32.94 33"><defs><style>.cls-1{fill:#fff;}</style></defs><title>Skills</title><g id="Warstwa_2" data-name="Warstwa 2"><g id="Warstwa_3" data-name="Warstwa 3"><path class="cls-1" d="M27.93,11.61c-.41.41-1.8.37-1.8.37s-3.69-.41-4.22-.95S21,6.65,21,6.65A2.33,2.33,0,0,1,21.44,5L25.91.57S26.42,0,25.69,0c-2.36,0-7.17,0-9.5,2.37l-.48.48a7.6,7.6,0,0,0,0,10.81l3.61,3.61a7.54,7.54,0,0,0,10.78,0l.48-.48c2.25-2.25,2.32-7,2.33-9.42,0-.77-.56-.27-.56-.27Z"/><path class="cls-1" d="M20.33,14,19,12.67a2.77,2.77,0,0,0-3.92,0L1.39,25.07a4.56,4.56,0,0,0,0,6.53,4.56,4.56,0,0,0,6.53,0s8.9-9.74,9.67-10.6A1.68,1.68,0,0,0,18,19.26s-1.57-2.19-2.41-3.5c-.46-.71-.24-.8.41-.39,1.8,1.15,3.9,2.47,4.26,2.64l.12-.13A2.77,2.77,0,0,0,20.33,14ZM5,30.21a2.29,2.29,0,1,1,2.29-2.29A2.29,2.29,0,0,1,5,30.21Z"/></g></g></svg>